<svg xmlns="http://www.w3.org/2000/svg" width="1080" height="1080" viewBox="0 0 1080 1080" version="1.1"><path d="M 710 331.061 C 706.975 331.535, 678.644 335.108, 647.043 339.002 C 615.441 342.895, 589.367 346.300, 589.099 346.568 C 588.831 346.836, 588.461 371.680, 588.278 401.778 C 588.094 431.875, 587.522 514.767, 587.005 585.983 C 586.489 657.199, 586.389 715.780, 586.783 716.164 C 587.177 716.548, 599.650 715.350, 614.500 713.502 C 629.350 711.654, 658.600 708.039, 679.500 705.469 C 700.400 702.899, 717.583 700.721, 717.685 700.629 C 717.787 700.538, 718.194 669.358, 718.590 631.342 L 719.310 562.221 714.905 559.456 C 712.482 557.936, 697 548.136, 680.500 537.679 C 664 527.222, 641.275 512.824, 630 505.684 C 595.330 483.727, 591 480.834, 591 479.626 C 591 478.845, 599.879 477.371, 617.750 475.184 C 701.848 464.893, 718.563 462.745, 719.161 462.154 C 719.525 461.794, 719.975 432.025, 720.161 396 L 720.500 330.500 718 330.350 C 716.625 330.268, 713.025 330.588, 710 331.061 M 543.500 352.024 C 527 354.124, 498.432 357.708, 480.016 359.989 C 461.600 362.269, 446.399 364.268, 446.236 364.430 C 445.418 365.249, 443.209 731.542, 444.017 732.350 C 444.287 732.621, 456.656 731.334, 471.504 729.492 C 486.352 727.650, 515.600 724.039, 536.500 721.469 C 557.400 718.899, 574.725 716.579, 575 716.315 C 575.275 716.050, 575.500 684.270, 575.500 645.693 L 575.500 575.553 556.500 563.435 C 539.895 552.844, 492.999 523.109, 463.778 504.644 C 458.431 501.265, 454.044 497.973, 454.028 497.329 C 453.992 495.814, 455.594 495.519, 480 492.560 C 549.550 484.126, 575.573 480.774, 576.122 480.177 C 576.465 479.804, 577.021 449.913, 577.358 413.750 L 577.971 348 575.736 348.103 C 574.506 348.160, 560 349.925, 543.500 352.024 M 399 369.487 C 380.575 371.823, 351.775 375.409, 335 377.456 C 318.225 379.504, 304.132 381.530, 303.682 381.958 C 303.231 382.386, 302.462 448.384, 301.972 528.618 C 301.482 608.853, 300.893 691.270, 300.663 711.767 C 300.432 732.402, 300.634 749.274, 301.117 749.572 C 301.596 749.869, 305.479 749.626, 309.744 749.034 C 314.010 748.441, 343.125 744.804, 374.444 740.951 C 405.763 737.098, 431.638 733.695, 431.944 733.390 C 432.250 733.084, 432.660 702.342, 432.856 665.075 L 433.212 597.317 413.356 584.782 C 391.494 570.982, 383.246 565.755, 337.250 536.557 C 320.063 525.647, 306 516.116, 306 515.379 C 306 513.661, 307.195 513.414, 327 511.037 C 364.284 506.561, 433.408 497.922, 433.564 497.719 C 433.656 497.598, 433.905 467.839, 434.116 431.586 C 434.369 388.141, 434.159 365.598, 433.500 365.456 C 432.950 365.337, 417.425 367.151, 399 369.487" stroke="none" fill="#E8201C" fill-rule="evenodd"/></svg>
